<?xml version="1.0" encoding="utf-8"?>
<!-- Generator: Adobe Illustrator 18.0.0, SVG Export Plug-In . SVG Version: 6.00 Build 0)  -->
<!DOCTYPE svg PUBLIC "-//W3C//DTD SVG 1.1//EN" "http://www.w3.org/Graphics/SVG/1.1/DTD/svg11.dtd">
<svg version="1.1" id="Layer_1" xmlns="http://www.w3.org/2000/svg" xmlns:xlink="http://www.w3.org/1999/xlink" x="0px" y="0px"
	 viewBox="140.6 101.9 342.2 341.6" enable-background="new 140.6 101.9 342.2 341.6" xml:space="preserve">
<g id="Github" transform="translate(237.000000, 0.000000)">
	<path fill="#333333" d="M-96.4,272.7c0-94.5,76.9-170.8,170.8-170.8s170.8,76.3,170.8,170.8S168.4,443.6,74.5,443.6
		S-96.4,366.7-96.4,272.7z"/>
	<path id="Path_20_" fill="#FFFFFF" d="M7.3,283.6c8,14.2,23.3,23.3,49.5,25.6c-4,2.8-8,8-9.1,14.2c-4.6,2.8-14.2,4-21.6,1.7
		c-10.2-3.4-14.2-23.3-29.6-20.5c-3.4,0.6-2.8,2.8,0,4.6C1,312,5.6,316,9,324c2.8,6.3,8,17.1,25.6,17.1c6.8,0,12-0.6,12-0.6
		s0,15.4,0,21.6c0,6.8-9.7,9.1-9.7,12.5c0,1.1,3.4,1.7,5.7,1.7c5.1,0,15.4-4,15.4-11.4c0-5.7,0-25.1,0-28.5c0-7.4,4-9.7,4-9.7
		s0.6,39.3-1.1,45c-1.7,6.3-4.6,5.1-4.6,8c0,4,12.5,1.1,17.1-8c3.4-6.8,1.7-45.6,1.7-45.6h3.4c0,0,0,17.7,0,25.6
		c0,8.5-0.6,18.8,4.6,23.9c3.4,3.4,14.2,9.1,14.2,4c0-2.8-5.7-5.7-5.7-13.7V328c4.6,0,4,12.5,4,12.5l0.6,23.3c0,0-1.1,8.5,9.1,12
		c3.4,1.1,11.4,1.7,12-0.6c0.6-2.3-9.7-5.1-9.7-12c0-4,0-6.3,0-23.9s-2.3-23.9-10.8-29c25.6-2.8,41.6-9.1,49.5-25.6
		c0.6,0,3.4-8,2.8-8c1.7-6.3,2.8-13.7,2.8-22.8c0-23.9-12-32.5-14.2-36.4c3.4-18.2-0.6-26.2-2.3-29c-6.8-2.3-22.8,5.7-31.9,12
		c-14.8-4-45.6-4-56.9,1.1C24.9,186.8,14.1,189,14.1,189s-7.4,13.1-1.7,31.9c-6.8,8.5-12.5,14.8-12.5,31.3c0,9.1,1.1,17.7,3.4,25.1
		C3.3,275.6,7.3,283.6,7.3,283.6z"/>
	<path id="reflec_30_" fill-opacity="8.000000e-02" d="M245.8,272.7c0,94.5-76.9,170.8-170.8,170.8c-35.3,0-67.8-10.2-94.5-28.5
		l195.9-280.1C218.5,165.7,245.8,215.8,245.8,272.7z"/>
</g>
</svg>
