<?xml version="1.0" encoding="utf-8"?>
<!-- Generator: Adobe Illustrator 18.0.0, SVG Export Plug-In . SVG Version: 6.00 Build 0)  -->
<!DOCTYPE svg PUBLIC "-//W3C//DTD SVG 1.1//EN" "http://www.w3.org/Graphics/SVG/1.1/DTD/svg11.dtd">
<svg version="1.1" id="Layer_1" xmlns="http://www.w3.org/2000/svg" xmlns:xlink="http://www.w3.org/1999/xlink" x="0px" y="0px"
	 viewBox="142.1 40.2 345.5 344.9" enable-background="new 142.1 40.2 345.5 344.9" xml:space="preserve">
<g id="LinkedIN" transform="translate(316.000000, 0.500000)">
	<path fill="#007BB6" d="M-173.9,212.2c0-95.4,77.6-172.5,172.5-172.5c95.4,0,172.5,77,172.5,172.5S93.4,384.6-1.5,384.6
		S-173.9,307.6-173.9,212.2z"/>
	<path id="Path_9_" fill="#FFFFFF" d="M-45.1,176h-39.1v117.3h39.1V176z"/>
	<path id="Path_10_" fill="#FFFFFF" d="M-42.3,139.8c0-11.5-8.6-20.1-21.8-20.1S-86,128.3-86,139.8s8.6,20.1,21.8,20.1l0,0
		C-50.9,159.9-42.3,151.3-42.3,139.8z"/>
	<path id="Path_11_" fill="#FFFFFF" d="M95.7,226c0-36.2-19.5-52.9-44.8-52.9c-20.7,0-29.9,11.5-35.1,19.5V176h-39.1
		c0.6,10.9,0,117.3,0,117.3h39.1v-65c0-3.4,0-6.9,1.1-9.8c2.9-6.9,9.2-14.4,20.1-14.4c14.4,0,19.5,10.9,19.5,26.4v62.7h39.1V226z"/>
	<path id="reflec_22_" fill-opacity="8.000000e-02" d="M171.6,212.2c0,95.4-77.6,172.5-172.5,172.5c-35.6,0-68.4-10.3-95.4-28.7
		L101.4,73.1C144,104.7,171.6,155.3,171.6,212.2z"/>
</g>
</svg>
