<?xml version="1.0" encoding="utf-8"?>
<!-- Generator: Adobe Illustrator 18.0.0, SVG Export Plug-In . SVG Version: 6.00 Build 0)  -->
<!DOCTYPE svg PUBLIC "-//W3C//DTD SVG 1.1//EN" "http://www.w3.org/Graphics/SVG/1.1/DTD/svg11.dtd">
<svg version="1.1" id="Layer_1" xmlns="http://www.w3.org/2000/svg" xmlns:xlink="http://www.w3.org/1999/xlink" x="0px" y="0px"
	 viewBox="136.2 26.6 390.4 389.7" enable-background="new 136.2 26.6 390.4 389.7" xml:space="preserve">
<g id="Twitter">
	<path fill="#4099FF" d="M136.2,221.5c0-107.8,87.7-194.9,194.9-194.9s194.9,87,194.9,194.9S438.2,416.3,331,416.3
		S136.2,329.3,136.2,221.5z"/>
	<path id="Path_17_" fill="#FFFFFF" d="M326.5,181.9l0.6,6.5l-6.5-0.6c-24.7-3.2-46.8-13.6-65-31.8l-9.1-9.1l-2.6,6.5
		c-5.2,14.9-1.9,30.5,8.4,40.9c5.2,5.8,4.5,6.5-5.2,3.2c-3.2-1.3-5.8-1.9-6.5-1.3s2.6,13.6,5.2,18.2c3.2,7.1,11,13.6,18.8,17.5
		l6.5,3.2h-7.8c-7.8,0-7.8,0-7.1,3.2c2.6,9.1,13.6,18.2,25.3,22.7l8.4,2.6l-7.1,4.5c-11,6.5-24,9.7-36.4,10.4c-5.8,0-11,0.6-11,1.3
		c0,1.3,16.9,9.1,26,12.3c29.2,9.1,63.7,5.2,89.6-10.4c18.2-11,37-32.5,45.5-53.3c4.5-11,9.1-31.8,9.1-41.6c0-6.5,0.6-7.1,7.8-14.9
		c4.5-4.5,8.4-9.1,9.7-10.4c1.3-2.6,1.3-2.6-5.8,0c-11.7,3.9-13,3.9-7.8-2.6c4.5-4.5,9.1-12.3,9.1-14.9c0-0.6-1.9,0-4.5,1.3
		s-7.8,3.2-11.7,4.5l-7.1,2.6l-6.5-4.5c-3.9-2.6-9.1-5.2-11.7-5.8c-7.1-1.9-17.5-1.9-24,0.6C336.2,148.7,325.2,164.3,326.5,181.9z"
		/>
	<path id="reflec_27_" fill-opacity="8.000000e-02" d="M526.5,221.5c0,107.8-87.7,194.9-194.9,194.9c-40.3,0-77.3-11.7-107.8-32.5
		L446.7,64.3C495.4,100,526.5,157.2,526.5,221.5z"/>
</g>
</svg>
